<?xml version="1.0" encoding="UTF-8" standalone="no"?><svg xmlns="http://www.w3.org/2000/svg" xmlns:xlink="http://www.w3.org/1999/xlink" contentStyleType="text/css" height="864px" preserveAspectRatio="none" style="width:871px;height:864px;background:#FFFFFF;" version="1.1" viewBox="0 0 871 864" width="871px" zoomAndPan="magnify"><defs/><g><rect fill="#FFFFFF" height="671.3828" style="stroke:#181818;stroke-width:1.0;" width="10" x="36.5" y="92.6094"/><rect fill="#FFFFFF" height="151.7578" style="stroke:#181818;stroke-width:1.0;" width="10" x="288.5" y="159.3125"/><rect fill="#FFFFFF" height="151.7578" style="stroke:#181818;stroke-width:1.0;" width="10" x="288.5" y="385.7734"/><rect fill="#FFFFFF" height="151.7578" style="stroke:#181818;stroke-width:1.0;" width="10" x="288.5" y="612.2344"/><rect fill="#FFFFFF" height="91.0547" style="stroke:#181818;stroke-width:1.0;" width="10" x="595.5" y="189.6641"/><rect fill="#FFFFFF" height="91.0547" style="stroke:#181818;stroke-width:1.0;" width="10" x="595.5" y="416.125"/><rect fill="#FFFFFF" height="91.0547" style="stroke:#181818;stroke-width:1.0;" width="10" x="595.5" y="642.5859"/><rect fill="#FFFFFF" height="30.3516" style="stroke:#181818;stroke-width:1.0;" width="10" x="825.5" y="220.0156"/><rect fill="#FFFFFF" height="30.3516" style="stroke:#181818;stroke-width:1.0;" width="10" x="825.5" y="446.4766"/><rect fill="#FFFFFF" height="30.3516" style="stroke:#181818;stroke-width:1.0;" width="10" x="825.5" y="672.9375"/><line style="stroke:#181818;stroke-width:0.5;stroke-dasharray:5.0,5.0;" x1="41" x2="41" y1="82.6094" y2="781.9922"/><line style="stroke:#181818;stroke-width:0.5;stroke-dasharray:5.0,5.0;" x1="293" x2="293" y1="82.6094" y2="781.9922"/><line style="stroke:#181818;stroke-width:0.5;stroke-dasharray:5.0,5.0;" x1="600" x2="600" y1="82.6094" y2="781.9922"/><line style="stroke:#181818;stroke-width:0.5;stroke-dasharray:5.0,5.0;" x1="830" x2="830" y1="82.6094" y2="781.9922"/><text fill="#000000" font-family="sans-serif" font-size="14" lengthAdjust="spacing" textLength="67" x="5" y="79.5332">Everybody</text><ellipse cx="41.5" cy="13.5" fill="#E2E2F0" rx="8" ry="8" style="stroke:#181818;stroke-width:0.5;"/><path d="M41.5,21.5 L41.5,48.5 M28.5,29.5 L54.5,29.5 M41.5,48.5 L28.5,63.5 M41.5,48.5 L54.5,63.5 " fill="none" style="stroke:#181818;stroke-width:0.5;"/><text fill="#000000" font-family="sans-serif" font-size="14" lengthAdjust="spacing" textLength="67" x="5" y="795.5254">Everybody</text><ellipse cx="41.5" cy="807.1016" fill="#E2E2F0" rx="8" ry="8" style="stroke:#181818;stroke-width:0.5;"/><path d="M41.5,815.1016 L41.5,842.1016 M28.5,823.1016 L54.5,823.1016 M41.5,842.1016 L28.5,857.1016 M41.5,842.1016 L54.5,857.1016 " fill="none" style="stroke:#181818;stroke-width:0.5;"/><rect fill="#E2E2F0" height="31.6094" rx="2.5" ry="2.5" style="stroke:#181818;stroke-width:0.5;" width="69" x="259" y="50"/><text fill="#000000" font-family="sans-serif" font-size="14" lengthAdjust="spacing" textLength="55" x="266" y="71.5332">Gateway</text><rect fill="#E2E2F0" height="31.6094" rx="2.5" ry="2.5" style="stroke:#181818;stroke-width:0.5;" width="69" x="259" y="780.9922"/><text fill="#000000" font-family="sans-serif" font-size="14" lengthAdjust="spacing" textLength="55" x="266" y="802.5254">Gateway</text><rect fill="#E2E2F0" height="31.6094" rx="2.5" ry="2.5" style="stroke:#181818;stroke-width:0.5;" width="75" x="563" y="50"/><text fill="#000000" font-family="sans-serif" font-size="14" lengthAdjust="spacing" textLength="61" x="570" y="71.5332">Hotel App</text><rect fill="#E2E2F0" height="31.6094" rx="2.5" ry="2.5" style="stroke:#181818;stroke-width:0.5;" width="75" x="563" y="780.9922"/><text fill="#000000" font-family="sans-serif" font-size="14" lengthAdjust="spacing" textLength="61" x="570" y="802.5254">Hotel App</text><text fill="#000000" font-family="sans-serif" font-size="14" lengthAdjust="spacing" textLength="51" x="802" y="79.5332">HotelDB</text><path d="M812.5,29 C812.5,19 830.5,19 830.5,19 C830.5,19 848.5,19 848.5,29 L848.5,55 C848.5,65 830.5,65 830.5,65 C830.5,65 812.5,65 812.5,55 L812.5,29 " fill="#E2E2F0" style="stroke:#181818;stroke-width:1.5;"/><path d="M812.5,29 C812.5,39 830.5,39 830.5,39 C830.5,39 848.5,39 848.5,29 " fill="none" style="stroke:#181818;stroke-width:1.5;"/><text fill="#000000" font-family="sans-serif" font-size="14" lengthAdjust="spacing" textLength="51" x="802" y="795.5254">HotelDB</text><path d="M812.5,808.6016 C812.5,798.6016 830.5,798.6016 830.5,798.6016 C830.5,798.6016 848.5,798.6016 848.5,808.6016 L848.5,834.6016 C848.5,844.6016 830.5,844.6016 830.5,844.6016 C830.5,844.6016 812.5,844.6016 812.5,834.6016 L812.5,808.6016 " fill="#E2E2F0" style="stroke:#181818;stroke-width:1.5;"/><path d="M812.5,808.6016 C812.5,818.6016 830.5,818.6016 830.5,818.6016 C830.5,818.6016 848.5,818.6016 848.5,808.6016 " fill="none" style="stroke:#181818;stroke-width:1.5;"/><rect fill="#FFFFFF" height="671.3828" style="stroke:#181818;stroke-width:1.0;" width="10" x="36.5" y="92.6094"/><rect fill="#FFFFFF" height="151.7578" style="stroke:#181818;stroke-width:1.0;" width="10" x="288.5" y="159.3125"/><rect fill="#FFFFFF" height="151.7578" style="stroke:#181818;stroke-width:1.0;" width="10" x="288.5" y="385.7734"/><rect fill="#FFFFFF" height="151.7578" style="stroke:#181818;stroke-width:1.0;" width="10" x="288.5" y="612.2344"/><rect fill="#FFFFFF" height="91.0547" style="stroke:#181818;stroke-width:1.0;" width="10" x="595.5" y="189.6641"/><rect fill="#FFFFFF" height="91.0547" style="stroke:#181818;stroke-width:1.0;" width="10" x="595.5" y="416.125"/><rect fill="#FFFFFF" height="91.0547" style="stroke:#181818;stroke-width:1.0;" width="10" x="595.5" y="642.5859"/><rect fill="#FFFFFF" height="30.3516" style="stroke:#181818;stroke-width:1.0;" width="10" x="825.5" y="220.0156"/><rect fill="#FFFFFF" height="30.3516" style="stroke:#181818;stroke-width:1.0;" width="10" x="825.5" y="446.4766"/><rect fill="#FFFFFF" height="30.3516" style="stroke:#181818;stroke-width:1.0;" width="10" x="825.5" y="672.9375"/><rect fill="#EEEEEE" height="3" style="stroke:#EEEEEE;stroke-width:1.0;" width="864" x="0" y="113.7852"/><line style="stroke:#000000;stroke-width:1.0;" x1="0" x2="864" y1="113.7852" y2="113.7852"/><line style="stroke:#000000;stroke-width:1.0;" x1="0" x2="864" y1="116.7852" y2="116.7852"/><rect fill="#EEEEEE" height="24.3516" style="stroke:#000000;stroke-width:2.0;" width="108" x="378" y="102.6094"/><text fill="#000000" font-family="sans-serif" font-size="13" font-weight="bold" lengthAdjust="spacing" textLength="94" x="384" y="120.1045">View all hotels</text><polygon fill="#181818" points="276.5,155.3125,286.5,159.3125,276.5,163.3125,280.5,159.3125" style="stroke:#181818;stroke-width:1.0;"/><line style="stroke:#181818;stroke-width:1.0;" x1="46.5" x2="282.5" y1="159.3125" y2="159.3125"/><text fill="#000000" font-family="sans-serif" font-size="13" lengthAdjust="spacing" textLength="69" x="53.5" y="154.4561">GET /hotels</text><polygon fill="#181818" points="583.5,185.6641,593.5,189.6641,583.5,193.6641,587.5,189.6641" style="stroke:#181818;stroke-width:1.0;"/><line style="stroke:#181818;stroke-width:1.0;" x1="298.5" x2="589.5" y1="189.6641" y2="189.6641"/><text fill="#000000" font-family="sans-serif" font-size="13" lengthAdjust="spacing" textLength="197" x="305.5" y="184.8076">send request to get a list of hotels</text><polygon fill="#181818" points="813.5,216.0156,823.5,220.0156,813.5,224.0156,817.5,220.0156" style="stroke:#181818;stroke-width:1.0;"/><line style="stroke:#181818;stroke-width:1.0;" x1="605.5" x2="819.5" y1="220.0156" y2="220.0156"/><text fill="#000000" font-family="sans-serif" font-size="13" lengthAdjust="spacing" textLength="91" x="612.5" y="215.1592">select all hotels</text><polygon fill="#181818" points="616.5,246.3672,606.5,250.3672,616.5,254.3672,612.5,250.3672" style="stroke:#181818;stroke-width:1.0;"/><line style="stroke:#181818;stroke-width:1.0;" x1="610.5" x2="829.5" y1="250.3672" y2="250.3672"/><text fill="#000000" font-family="sans-serif" font-size="13" lengthAdjust="spacing" textLength="89" x="622.5" y="245.5107">return all hotels</text><polygon fill="#181818" points="309.5,276.7188,299.5,280.7188,309.5,284.7188,305.5,280.7188" style="stroke:#181818;stroke-width:1.0;"/><line style="stroke:#181818;stroke-width:1.0;" x1="303.5" x2="599.5" y1="280.7188" y2="280.7188"/><text fill="#000000" font-family="sans-serif" font-size="13" lengthAdjust="spacing" textLength="174" x="315.5" y="275.8623">return the list of all hotels view</text><polygon fill="#181818" points="57.5,307.0703,47.5,311.0703,57.5,315.0703,53.5,311.0703" style="stroke:#181818;stroke-width:1.0;"/><line style="stroke:#181818;stroke-width:1.0;" x1="51.5" x2="292.5" y1="311.0703" y2="311.0703"/><text fill="#000000" font-family="sans-serif" font-size="13" lengthAdjust="spacing" textLength="174" x="63.5" y="306.2139">return the list of all hotels view</text><rect fill="#EEEEEE" height="3" style="stroke:#EEEEEE;stroke-width:1.0;" width="864" x="0" y="340.2461"/><line style="stroke:#000000;stroke-width:1.0;" x1="0" x2="864" y1="340.2461" y2="340.2461"/><line style="stroke:#000000;stroke-width:1.0;" x1="0" x2="864" y1="343.2461" y2="343.2461"/><rect fill="#EEEEEE" height="24.3516" style="stroke:#000000;stroke-width:2.0;" width="159" x="352.5" y="329.0703"/><text fill="#000000" font-family="sans-serif" font-size="13" font-weight="bold" lengthAdjust="spacing" textLength="145" x="358.5" y="346.5654">View hotel information</text><polygon fill="#181818" points="276.5,381.7734,286.5,385.7734,276.5,389.7734,280.5,385.7734" style="stroke:#181818;stroke-width:1.0;"/><line style="stroke:#181818;stroke-width:1.0;" x1="46.5" x2="282.5" y1="385.7734" y2="385.7734"/><text fill="#000000" font-family="sans-serif" font-size="13" lengthAdjust="spacing" textLength="91" x="53.5" y="380.917">GET /hotels/{id}</text><polygon fill="#181818" points="583.5,412.125,593.5,416.125,583.5,420.125,587.5,416.125" style="stroke:#181818;stroke-width:1.0;"/><line style="stroke:#181818;stroke-width:1.0;" x1="298.5" x2="589.5" y1="416.125" y2="416.125"/><text fill="#000000" font-family="sans-serif" font-size="13" lengthAdjust="spacing" textLength="211" x="305.5" y="411.2686">send request to get hotel information</text><polygon fill="#181818" points="813.5,442.4766,823.5,446.4766,813.5,450.4766,817.5,446.4766" style="stroke:#181818;stroke-width:1.0;"/><line style="stroke:#181818;stroke-width:1.0;" x1="605.5" x2="819.5" y1="446.4766" y2="446.4766"/><text fill="#000000" font-family="sans-serif" font-size="13" lengthAdjust="spacing" textLength="134" x="612.5" y="441.6201">select hotel information</text><polygon fill="#181818" points="616.5,472.8281,606.5,476.8281,616.5,480.8281,612.5,476.8281" style="stroke:#181818;stroke-width:1.0;"/><line style="stroke:#181818;stroke-width:1.0;" x1="610.5" x2="829.5" y1="476.8281" y2="476.8281"/><text fill="#000000" font-family="sans-serif" font-size="13" lengthAdjust="spacing" textLength="132" x="622.5" y="471.9717">return hotel information</text><polygon fill="#181818" points="309.5,503.1797,299.5,507.1797,309.5,511.1797,305.5,507.1797" style="stroke:#181818;stroke-width:1.0;"/><line style="stroke:#181818;stroke-width:1.0;" x1="303.5" x2="599.5" y1="507.1797" y2="507.1797"/><text fill="#000000" font-family="sans-serif" font-size="13" lengthAdjust="spacing" textLength="218" x="315.5" y="502.3232">return information about the hotel view</text><polygon fill="#181818" points="57.5,533.5313,47.5,537.5313,57.5,541.5313,53.5,537.5313" style="stroke:#181818;stroke-width:1.0;"/><line style="stroke:#181818;stroke-width:1.0;" x1="51.5" x2="292.5" y1="537.5313" y2="537.5313"/><text fill="#000000" font-family="sans-serif" font-size="13" lengthAdjust="spacing" textLength="218" x="63.5" y="532.6748">return information about the hotel view</text><rect fill="#EEEEEE" height="3" style="stroke:#EEEEEE;stroke-width:1.0;" width="864" x="0" y="566.707"/><line style="stroke:#000000;stroke-width:1.0;" x1="0" x2="864" y1="566.707" y2="566.707"/><line style="stroke:#000000;stroke-width:1.0;" x1="0" x2="864" y1="569.707" y2="569.707"/><rect fill="#EEEEEE" height="24.3516" style="stroke:#000000;stroke-width:2.0;" width="187" x="338.5" y="555.5313"/><text fill="#000000" font-family="sans-serif" font-size="13" font-weight="bold" lengthAdjust="spacing" textLength="173" x="344.5" y="573.0264">Sorted hotel by parameters</text><polygon fill="#181818" points="276.5,608.2344,286.5,612.2344,276.5,616.2344,280.5,612.2344" style="stroke:#181818;stroke-width:1.0;"/><line style="stroke:#181818;stroke-width:1.0;" x1="46.5" x2="282.5" y1="612.2344" y2="612.2344"/><text fill="#000000" font-family="sans-serif" font-size="13" lengthAdjust="spacing" textLength="170" x="53.5" y="607.3779">GET /hotels?param=value&amp;...</text><polygon fill="#181818" points="583.5,638.5859,593.5,642.5859,583.5,646.5859,587.5,642.5859" style="stroke:#181818;stroke-width:1.0;"/><line style="stroke:#181818;stroke-width:1.0;" x1="298.5" x2="589.5" y1="642.5859" y2="642.5859"/><text fill="#000000" font-family="sans-serif" font-size="13" lengthAdjust="spacing" textLength="278" x="305.5" y="637.7295">send request to get hotels sorted by parameters</text><polygon fill="#181818" points="813.5,668.9375,823.5,672.9375,813.5,676.9375,817.5,672.9375" style="stroke:#181818;stroke-width:1.0;"/><line style="stroke:#181818;stroke-width:1.0;" x1="605.5" x2="819.5" y1="672.9375" y2="672.9375"/><text fill="#000000" font-family="sans-serif" font-size="13" lengthAdjust="spacing" textLength="201" x="612.5" y="668.0811">select sorted hotels by parameters</text><polygon fill="#181818" points="616.5,699.2891,606.5,703.2891,616.5,707.2891,612.5,703.2891" style="stroke:#181818;stroke-width:1.0;"/><line style="stroke:#181818;stroke-width:1.0;" x1="610.5" x2="829.5" y1="703.2891" y2="703.2891"/><text fill="#000000" font-family="sans-serif" font-size="13" lengthAdjust="spacing" textLength="93" x="622.5" y="698.4326">return hotels list</text><polygon fill="#181818" points="309.5,729.6406,299.5,733.6406,309.5,737.6406,305.5,733.6406" style="stroke:#181818;stroke-width:1.0;"/><line style="stroke:#181818;stroke-width:1.0;" x1="303.5" x2="599.5" y1="733.6406" y2="733.6406"/><text fill="#000000" font-family="sans-serif" font-size="13" lengthAdjust="spacing" textLength="197" x="315.5" y="728.7842">return sorted list of the hotels view</text><polygon fill="#181818" points="52.5,759.9922,42.5,763.9922,52.5,767.9922,48.5,763.9922" style="stroke:#181818;stroke-width:1.0;"/><line style="stroke:#181818;stroke-width:1.0;" x1="46.5" x2="292.5" y1="763.9922" y2="763.9922"/><text fill="#000000" font-family="sans-serif" font-size="13" lengthAdjust="spacing" textLength="197" x="58.5" y="759.1357">return sorted list of the hotels view</text><!--MD5=[fcb55e3a0ad2dcb600f71a076a168442]
@startuml

actor Everybody
participant "Gateway" as gateway
participant "Hotel App" as hotel
database "HotelDB" as base

==View all hotels==
activate Everybody
    Everybody -> gateway:GET /hotels
activate gateway
    gateway -> hotel: send request to get a list of hotels
activate hotel
    hotel -> base: select all hotels
activate base
    base -> hotel: return all hotels
deactivate base
    hotel -> gateway: return the list of all hotels view
deactivate hotel
    gateway -> Everybody: return the list of all hotels view
deactivate gateway


==View hotel information==

    Everybody -> gateway: GET /hotels/{id}
activate gateway
    gateway -> hotel: send request to get hotel information
activate hotel
    hotel-> base: select hotel information
activate base
    base -> hotel: return hotel information
deactivate base
    hotel -> gateway: return information about the hotel view
deactivate hotel
    gateway -> Everybody: return information about the hotel view
deactivate gateway


==Sorted hotel by parameters==

    Everybody -> gateway: GET /hotels?param=value&...
activate gateway
    gateway -> hotel: send request to get hotels sorted by parameters
activate hotel
    hotel-> base: select sorted hotels by parameters
activate base
    base-> hotel: return hotels list
deactivate base
    hotel -> gateway: return sorted list of the hotels view
 deactivate hotel
   gateway -> Everybody: return sorted list of the hotels view
deactivate gateway
deactivate Everybody

@enduml

PlantUML version 1.2022.5(Sat Apr 30 13:55:52 MSK 2022)
(GPL source distribution)
Java Runtime: OpenJDK Runtime Environment
JVM: OpenJDK 64-Bit Server VM
Default Encoding: Cp1252
Language: en
Country: US
--></g></svg>